<?xml version="1.0" standalone="no"?>
<!DOCTYPE svg PUBLIC "-//W3C//DTD SVG 20010904//EN"
 "http://www.w3.org/TR/2001/REC-SVG-20010904/DTD/svg10.dtd">
<svg version="1.0" xmlns="http://www.w3.org/2000/svg"
 width="450.000000pt" height="300.000000pt" viewBox="0 0 450.000000 300.000000"
 preserveAspectRatio="xMidYMid meet">

<g transform="translate(0.000000,300.000000) scale(0.100000,-0.100000)"
fill="#ff0000" stroke="none">
<path d="M2582 2583 c-21 -38 -84 -149 -140 -248 -55 -99 -111 -200 -125 -225
-14 -25 -28 -56 -30 -70 -7 -35 -29 -80 -39 -80 -5 0 -7 8 -4 18 4 12 -7 36
-29 68 -20 27 -81 121 -136 209 -174 278 -234 368 -246 372 -10 4 -69 -103
-152 -277 -14 -30 -112 -228 -217 -440 -241 -488 -268 -545 -261 -564 5 -13
35 -16 179 -18 168 -3 173 -4 176 -24 2 -12 -4 -29 -13 -38 -9 -9 -68 -119
-130 -245 -62 -126 -119 -233 -127 -237 -7 -5 -29 -14 -48 -20 -33 -10 -35
-12 -33 -50 3 -41 38 -194 53 -230 19 -46 43 -36 177 72 70 58 152 122 181
145 28 22 52 44 52 49 0 12 -37 23 -51 15 -16 -11 -79 4 -79 19 0 7 76 162
170 345 93 184 172 343 176 354 4 11 1 23 -7 28 -8 5 -85 9 -172 8 -88 0 -162
2 -165 6 -7 6 317 663 331 672 12 8 47 -28 47 -48 0 -31 319 -661 333 -657 11
4 175 325 311 606 27 56 54 102 61 102 19 0 43 -32 60 -80 27 -76 246 -510
271 -537 49 -53 33 -60 -154 -68 -117 -6 -165 -11 -168 -20 -3 -7 69 -167 160
-355 91 -188 166 -348 166 -355 0 -10 -16 -15 -52 -17 -28 -2 -53 -8 -55 -14
-5 -15 354 -314 379 -314 4 0 10 12 14 27 3 16 17 69 31 118 52 184 52 185 -2
185 -25 0 -39 6 -49 23 -32 49 -248 517 -244 529 3 9 41 11 144 9 123 -2 142
0 162 16 l23 18 -142 275 c-77 151 -155 300 -171 330 -17 30 -98 188 -181 350
-143 281 -171 330 -187 330 -4 0 -26 -30 -48 -67z"/>
</g>
</svg>
